<svg width="410" height="56" viewBox="0 0 410 56" fill="none" xmlns="http://www.w3.org/2000/svg">
<rect width="410" height="56" rx="8" fill="#FFAA04" fill-opacity="0.1"/>
<rect x="14" y="12" width="32" height="32" rx="8" fill="#FFAA04" fill-opacity="0.8"/>
<path fill-rule="evenodd" clip-rule="evenodd" d="M32.0705 35.7274C27.8028 36.8709 23.4161 34.3383 22.2726 30.0705C21.129 25.8028 23.6617 21.4161 27.9294 20.2726C32.1972 19.1291 36.5839 21.6617 37.7274 25.9294L35.3126 26.5765C34.5264 23.6424 31.5105 21.9012 28.5765 22.6874C25.6424 23.4736 23.9012 26.4894 24.6874 29.4235C25.4736 32.3576 28.4894 34.0988 31.4235 33.3126L32.0705 35.7274Z" fill="white"/>
<path fill-rule="evenodd" clip-rule="evenodd" d="M32.0705 35.7274C27.8028 36.8709 23.4161 34.3383 22.2726 30.0705C21.129 25.8028 23.6617 21.4161 27.9294 20.2726C32.1972 19.1291 36.5839 21.6617 37.7274 25.9294L35.3126 26.5765C34.5264 23.6424 31.5105 21.9012 28.5765 22.6874C25.6424 23.4736 23.9012 26.4894 24.6874 29.4235C25.4736 32.3576 28.4894 34.0988 31.4235 33.3126L32.0705 35.7274Z" fill="#FFAA04" fill-opacity="0.1"/>
<path d="M58.304 35V29.544L54.176 23.08H55.952L59.408 28.504H58.768L62.208 23.08H63.984L59.888 29.544V35H58.304ZM67.8574 35.192C67.0254 35.192 66.2734 35 65.6014 34.616C64.9294 34.2213 64.396 33.6827 64.0014 33C63.6067 32.3173 63.4094 31.544 63.4094 30.68C63.4094 29.816 63.6014 29.048 63.9854 28.376C64.38 27.704 64.9134 27.1707 65.5854 26.776C66.2574 26.3813 67.0147 26.184 67.8574 26.184C68.6894 26.184 69.4414 26.3813 70.1134 26.776C70.7854 27.16 71.3134 27.688 71.6974 28.36C72.092 29.032 72.2894 29.8053 72.2894 30.68C72.2894 31.5547 72.0867 32.3333 71.6814 33.016C71.276 33.688 70.7374 34.2213 70.0654 34.616C69.404 35 68.668 35.192 67.8574 35.192ZM67.8574 33.752C68.3907 33.752 68.8707 33.6187 69.2974 33.352C69.7347 33.0853 70.076 32.7173 70.3214 32.248C70.5774 31.7787 70.7054 31.256 70.7054 30.68C70.7054 30.0933 70.5774 29.576 70.3214 29.128C70.076 28.6693 69.7347 28.3067 69.2974 28.04C68.8707 27.7627 68.3907 27.624 67.8574 27.624C67.3134 27.624 66.8227 27.7627 66.3854 28.04C65.9587 28.3067 65.6174 28.6693 65.3614 29.128C65.1054 29.576 64.9774 30.0933 64.9774 30.68C64.9774 31.256 65.1054 31.7787 65.3614 32.248C65.6174 32.7173 65.9587 33.0853 66.3854 33.352C66.8227 33.6187 67.3134 33.752 67.8574 33.752ZM77.2861 35.192C76.6675 35.192 76.1075 35.048 75.6061 34.76C75.1155 34.472 74.7315 34.072 74.4541 33.56C74.1875 33.0373 74.0541 32.44 74.0541 31.768V26.376H75.5421V31.608C75.5421 32.0347 75.6275 32.408 75.7981 32.728C75.9795 33.048 76.2248 33.2987 76.5341 33.48C76.8541 33.6613 77.2168 33.752 77.6221 33.752C78.0275 33.752 78.3848 33.6613 78.6941 33.48C79.0141 33.2987 79.2595 33.0373 79.4301 32.696C79.6115 32.3547 79.7021 31.9493 79.7021 31.48V26.376H81.2061V35H79.7501V33.32L79.9901 33.464C79.7875 34.008 79.4408 34.4347 78.9501 34.744C78.4701 35.0427 77.9155 35.192 77.2861 35.192ZM83.5114 35V26.376H84.9674V27.96L84.8074 27.736C85.01 27.2453 85.3194 26.8827 85.7354 26.648C86.1514 26.4027 86.658 26.28 87.2554 26.28H87.7834V27.688H87.0314C86.4234 27.688 85.9327 27.88 85.5594 28.264C85.186 28.6373 84.9994 29.1707 84.9994 29.864V35H83.5114ZM95.3748 35.096C94.5321 35.096 93.8814 34.856 93.4228 34.376C92.9748 33.896 92.7508 33.2187 92.7508 32.344V27.8H91.1828V26.376H91.5028C91.8868 26.376 92.1908 26.2587 92.4148 26.024C92.6388 25.7893 92.7508 25.48 92.7508 25.096V24.392H94.2388V26.376H96.1748V27.8H94.2388V32.296C94.2388 32.584 94.2814 32.8347 94.3668 33.048C94.4628 33.2613 94.6174 33.432 94.8307 33.56C95.0441 33.6773 95.3268 33.736 95.6788 33.736C95.7534 33.736 95.8441 33.7307 95.9508 33.72C96.0681 33.7093 96.1748 33.6987 96.2708 33.688V35C96.1321 35.032 95.9774 35.0533 95.8068 35.064C95.6361 35.0853 95.4921 35.096 95.3748 35.096ZM100.633 35.192C100.068 35.192 99.5665 35.0907 99.1291 34.888C98.7025 34.6747 98.3665 34.3867 98.1211 34.024C97.8758 33.6507 97.7531 33.224 97.7531 32.744C97.7531 32.2853 97.8491 31.8747 98.0411 31.512C98.2438 31.1387 98.5531 30.824 98.9691 30.568C99.3958 30.312 99.9291 30.1307 100.569 30.024L103.769 29.496V30.744L100.905 31.224C100.35 31.32 99.9451 31.496 99.6891 31.752C99.4438 32.008 99.3211 32.3227 99.3211 32.696C99.3211 33.048 99.4598 33.3413 99.7371 33.576C100.025 33.8107 100.382 33.928 100.809 33.928C101.353 33.928 101.822 33.816 102.217 33.592C102.622 33.3573 102.937 33.0427 103.161 32.648C103.396 32.2533 103.513 31.816 103.513 31.336V29.144C103.513 28.6747 103.337 28.296 102.985 28.008C102.644 27.7093 102.19 27.56 101.625 27.56C101.134 27.56 100.697 27.688 100.313 27.944C99.9398 28.1893 99.6625 28.52 99.4811 28.936L98.1851 28.264C98.3451 27.8693 98.6011 27.5173 98.9531 27.208C99.3051 26.888 99.7158 26.6373 100.185 26.456C100.654 26.2747 101.145 26.184 101.657 26.184C102.318 26.184 102.9 26.312 103.401 26.568C103.902 26.8133 104.292 27.16 104.569 27.608C104.857 28.0453 105.001 28.5573 105.001 29.144V35H103.545V33.368L103.817 33.464C103.636 33.8053 103.39 34.104 103.081 34.36C102.772 34.616 102.409 34.8187 101.993 34.968C101.577 35.1173 101.124 35.192 100.633 35.192ZM110.396 35.192C109.532 35.192 108.78 34.9787 108.14 34.552C107.5 34.1253 107.047 33.5493 106.78 32.824L107.964 32.248C108.21 32.76 108.546 33.1653 108.972 33.464C109.399 33.7627 109.874 33.912 110.396 33.912C110.866 33.912 111.255 33.8 111.564 33.576C111.874 33.352 112.028 33.0587 112.028 32.696C112.028 32.44 111.954 32.2373 111.804 32.088C111.666 31.928 111.495 31.8053 111.292 31.72C111.09 31.624 110.903 31.5547 110.732 31.512L109.436 31.144C108.658 30.92 108.087 30.6 107.724 30.184C107.372 29.768 107.196 29.2827 107.196 28.728C107.196 28.216 107.324 27.7733 107.58 27.4C107.847 27.016 108.204 26.7173 108.652 26.504C109.111 26.2907 109.623 26.184 110.188 26.184C110.946 26.184 111.623 26.376 112.22 26.76C112.828 27.144 113.26 27.6827 113.516 28.376L112.3 28.936C112.108 28.488 111.82 28.136 111.436 27.88C111.052 27.6133 110.62 27.48 110.14 27.48C109.703 27.48 109.356 27.592 109.1 27.816C108.844 28.0293 108.716 28.3013 108.716 28.632C108.716 28.8773 108.78 29.08 108.908 29.24C109.036 29.3893 109.191 29.5067 109.372 29.592C109.554 29.6667 109.73 29.7307 109.9 29.784L111.308 30.2C112.012 30.4027 112.556 30.7173 112.94 31.144C113.335 31.5707 113.532 32.0827 113.532 32.68C113.532 33.16 113.399 33.592 113.132 33.976C112.866 34.36 112.498 34.6587 112.028 34.872C111.559 35.0853 111.015 35.192 110.396 35.192ZM115.48 35V22.888H116.968V31.192L116.36 31.048L120.936 26.376H122.84L119.528 29.848L123.064 35H121.304L118.072 30.328L119 30.28L116.488 32.904L116.968 31.816V35H115.48ZM127.168 35V22.888H128.656V28.056L128.384 27.912C128.597 27.368 128.938 26.9467 129.408 26.648C129.888 26.3387 130.448 26.184 131.088 26.184C131.706 26.184 132.256 26.3227 132.736 26.6C133.226 26.8773 133.61 27.2613 133.888 27.752C134.176 28.2427 134.32 28.7973 134.32 29.416V35H132.816V29.896C132.816 29.416 132.725 29.0107 132.544 28.68C132.373 28.3493 132.133 28.0933 131.824 27.912C131.514 27.72 131.157 27.624 130.752 27.624C130.357 27.624 130 27.72 129.68 27.912C129.36 28.0933 129.109 28.3547 128.928 28.696C128.746 29.0267 128.656 29.4267 128.656 29.896V35H127.168ZM140.417 35.192C139.585 35.192 138.844 34.9947 138.193 34.6C137.542 34.2053 137.03 33.6667 136.657 32.984C136.284 32.2907 136.097 31.5173 136.097 30.664C136.097 29.8 136.278 29.032 136.641 28.36C137.014 27.688 137.516 27.16 138.145 26.776C138.785 26.3813 139.5 26.184 140.289 26.184C140.929 26.184 141.494 26.3013 141.985 26.536C142.486 26.76 142.908 27.0693 143.249 27.464C143.601 27.848 143.868 28.2907 144.049 28.792C144.241 29.2827 144.337 29.7947 144.337 30.328C144.337 30.4453 144.326 30.5787 144.305 30.728C144.294 30.8667 144.278 31 144.257 31.128H137.185V29.848H143.393L142.689 30.424C142.785 29.8693 142.732 29.3733 142.529 28.936C142.326 28.4987 142.028 28.152 141.633 27.896C141.238 27.64 140.79 27.512 140.289 27.512C139.788 27.512 139.329 27.64 138.913 27.896C138.497 28.152 138.172 28.52 137.937 29C137.713 29.4693 137.622 30.0293 137.665 30.68C137.622 31.3093 137.718 31.864 137.953 32.344C138.198 32.8133 138.54 33.1813 138.977 33.448C139.425 33.704 139.91 33.832 140.433 33.832C141.009 33.832 141.494 33.6987 141.889 33.432C142.284 33.1653 142.604 32.824 142.849 32.408L144.097 33.048C143.926 33.4427 143.66 33.8053 143.297 34.136C142.945 34.456 142.524 34.712 142.033 34.904C141.553 35.096 141.014 35.192 140.417 35.192ZM146.277 35V26.376H147.733V27.96L147.573 27.736C147.776 27.2453 148.085 26.8827 148.501 26.648C148.917 26.4027 149.424 26.28 150.021 26.28H150.549V27.688H149.797C149.189 27.688 148.698 27.88 148.325 28.264C147.952 28.6373 147.765 29.1707 147.765 29.864V35H146.277ZM155.839 35.192C155.007 35.192 154.265 34.9947 153.615 34.6C152.964 34.2053 152.452 33.6667 152.079 32.984C151.705 32.2907 151.519 31.5173 151.519 30.664C151.519 29.8 151.7 29.032 152.063 28.36C152.436 27.688 152.937 27.16 153.567 26.776C154.207 26.3813 154.921 26.184 155.711 26.184C156.351 26.184 156.916 26.3013 157.407 26.536C157.908 26.76 158.329 27.0693 158.671 27.464C159.023 27.848 159.289 28.2907 159.471 28.792C159.663 29.2827 159.759 29.7947 159.759 30.328C159.759 30.4453 159.748 30.5787 159.727 30.728C159.716 30.8667 159.7 31 159.679 31.128H152.607V29.848H158.815L158.111 30.424C158.207 29.8693 158.153 29.3733 157.951 28.936C157.748 28.4987 157.449 28.152 157.055 27.896C156.66 27.64 156.212 27.512 155.711 27.512C155.209 27.512 154.751 27.64 154.335 27.896C153.919 28.152 153.593 28.52 153.359 29C153.135 29.4693 153.044 30.0293 153.087 30.68C153.044 31.3093 153.14 31.864 153.375 32.344C153.62 32.8133 153.961 33.1813 154.399 33.448C154.847 33.704 155.332 33.832 155.855 33.832C156.431 33.832 156.916 33.6987 157.311 33.432C157.705 33.1653 158.025 32.824 158.271 32.408L159.519 33.048C159.348 33.4427 159.081 33.8053 158.719 34.136C158.367 34.456 157.945 34.712 157.455 34.904C156.975 35.096 156.436 35.192 155.839 35.192ZM162.307 35V33.08H163.859V35H162.307ZM167.385 35V33.08H168.937V35H167.385ZM172.463 35V33.08H174.015V35H172.463Z" fill="#FFB931"/>
<path d="M58.304 35V29.544L54.176 23.08H55.952L59.408 28.504H58.768L62.208 23.08H63.984L59.888 29.544V35H58.304ZM67.8574 35.192C67.0254 35.192 66.2734 35 65.6014 34.616C64.9294 34.2213 64.396 33.6827 64.0014 33C63.6067 32.3173 63.4094 31.544 63.4094 30.68C63.4094 29.816 63.6014 29.048 63.9854 28.376C64.38 27.704 64.9134 27.1707 65.5854 26.776C66.2574 26.3813 67.0147 26.184 67.8574 26.184C68.6894 26.184 69.4414 26.3813 70.1134 26.776C70.7854 27.16 71.3134 27.688 71.6974 28.36C72.092 29.032 72.2894 29.8053 72.2894 30.68C72.2894 31.5547 72.0867 32.3333 71.6814 33.016C71.276 33.688 70.7374 34.2213 70.0654 34.616C69.404 35 68.668 35.192 67.8574 35.192ZM67.8574 33.752C68.3907 33.752 68.8707 33.6187 69.2974 33.352C69.7347 33.0853 70.076 32.7173 70.3214 32.248C70.5774 31.7787 70.7054 31.256 70.7054 30.68C70.7054 30.0933 70.5774 29.576 70.3214 29.128C70.076 28.6693 69.7347 28.3067 69.2974 28.04C68.8707 27.7627 68.3907 27.624 67.8574 27.624C67.3134 27.624 66.8227 27.7627 66.3854 28.04C65.9587 28.3067 65.6174 28.6693 65.3614 29.128C65.1054 29.576 64.9774 30.0933 64.9774 30.68C64.9774 31.256 65.1054 31.7787 65.3614 32.248C65.6174 32.7173 65.9587 33.0853 66.3854 33.352C66.8227 33.6187 67.3134 33.752 67.8574 33.752ZM77.2861 35.192C76.6675 35.192 76.1075 35.048 75.6061 34.76C75.1155 34.472 74.7315 34.072 74.4541 33.56C74.1875 33.0373 74.0541 32.44 74.0541 31.768V26.376H75.5421V31.608C75.5421 32.0347 75.6275 32.408 75.7981 32.728C75.9795 33.048 76.2248 33.2987 76.5341 33.48C76.8541 33.6613 77.2168 33.752 77.6221 33.752C78.0275 33.752 78.3848 33.6613 78.6941 33.48C79.0141 33.2987 79.2595 33.0373 79.4301 32.696C79.6115 32.3547 79.7021 31.9493 79.7021 31.48V26.376H81.2061V35H79.7501V33.32L79.9901 33.464C79.7875 34.008 79.4408 34.4347 78.9501 34.744C78.4701 35.0427 77.9155 35.192 77.2861 35.192ZM83.5114 35V26.376H84.9674V27.96L84.8074 27.736C85.01 27.2453 85.3194 26.8827 85.7354 26.648C86.1514 26.4027 86.658 26.28 87.2554 26.28H87.7834V27.688H87.0314C86.4234 27.688 85.9327 27.88 85.5594 28.264C85.186 28.6373 84.9994 29.1707 84.9994 29.864V35H83.5114ZM95.3748 35.096C94.5321 35.096 93.8814 34.856 93.4228 34.376C92.9748 33.896 92.7508 33.2187 92.7508 32.344V27.8H91.1828V26.376H91.5028C91.8868 26.376 92.1908 26.2587 92.4148 26.024C92.6388 25.7893 92.7508 25.48 92.7508 25.096V24.392H94.2388V26.376H96.1748V27.8H94.2388V32.296C94.2388 32.584 94.2814 32.8347 94.3668 33.048C94.4628 33.2613 94.6174 33.432 94.8307 33.56C95.0441 33.6773 95.3268 33.736 95.6788 33.736C95.7534 33.736 95.8441 33.7307 95.9508 33.72C96.0681 33.7093 96.1748 33.6987 96.2708 33.688V35C96.1321 35.032 95.9774 35.0533 95.8068 35.064C95.6361 35.0853 95.4921 35.096 95.3748 35.096ZM100.633 35.192C100.068 35.192 99.5665 35.0907 99.1291 34.888C98.7025 34.6747 98.3665 34.3867 98.1211 34.024C97.8758 33.6507 97.7531 33.224 97.7531 32.744C97.7531 32.2853 97.8491 31.8747 98.0411 31.512C98.2438 31.1387 98.5531 30.824 98.9691 30.568C99.3958 30.312 99.9291 30.1307 100.569 30.024L103.769 29.496V30.744L100.905 31.224C100.35 31.32 99.9451 31.496 99.6891 31.752C99.4438 32.008 99.3211 32.3227 99.3211 32.696C99.3211 33.048 99.4598 33.3413 99.7371 33.576C100.025 33.8107 100.382 33.928 100.809 33.928C101.353 33.928 101.822 33.816 102.217 33.592C102.622 33.3573 102.937 33.0427 103.161 32.648C103.396 32.2533 103.513 31.816 103.513 31.336V29.144C103.513 28.6747 103.337 28.296 102.985 28.008C102.644 27.7093 102.19 27.56 101.625 27.56C101.134 27.56 100.697 27.688 100.313 27.944C99.9398 28.1893 99.6625 28.52 99.4811 28.936L98.1851 28.264C98.3451 27.8693 98.6011 27.5173 98.9531 27.208C99.3051 26.888 99.7158 26.6373 100.185 26.456C100.654 26.2747 101.145 26.184 101.657 26.184C102.318 26.184 102.9 26.312 103.401 26.568C103.902 26.8133 104.292 27.16 104.569 27.608C104.857 28.0453 105.001 28.5573 105.001 29.144V35H103.545V33.368L103.817 33.464C103.636 33.8053 103.39 34.104 103.081 34.36C102.772 34.616 102.409 34.8187 101.993 34.968C101.577 35.1173 101.124 35.192 100.633 35.192ZM110.396 35.192C109.532 35.192 108.78 34.9787 108.14 34.552C107.5 34.1253 107.047 33.5493 106.78 32.824L107.964 32.248C108.21 32.76 108.546 33.1653 108.972 33.464C109.399 33.7627 109.874 33.912 110.396 33.912C110.866 33.912 111.255 33.8 111.564 33.576C111.874 33.352 112.028 33.0587 112.028 32.696C112.028 32.44 111.954 32.2373 111.804 32.088C111.666 31.928 111.495 31.8053 111.292 31.72C111.09 31.624 110.903 31.5547 110.732 31.512L109.436 31.144C108.658 30.92 108.087 30.6 107.724 30.184C107.372 29.768 107.196 29.2827 107.196 28.728C107.196 28.216 107.324 27.7733 107.58 27.4C107.847 27.016 108.204 26.7173 108.652 26.504C109.111 26.2907 109.623 26.184 110.188 26.184C110.946 26.184 111.623 26.376 112.22 26.76C112.828 27.144 113.26 27.6827 113.516 28.376L112.3 28.936C112.108 28.488 111.82 28.136 111.436 27.88C111.052 27.6133 110.62 27.48 110.14 27.48C109.703 27.48 109.356 27.592 109.1 27.816C108.844 28.0293 108.716 28.3013 108.716 28.632C108.716 28.8773 108.78 29.08 108.908 29.24C109.036 29.3893 109.191 29.5067 109.372 29.592C109.554 29.6667 109.73 29.7307 109.9 29.784L111.308 30.2C112.012 30.4027 112.556 30.7173 112.94 31.144C113.335 31.5707 113.532 32.0827 113.532 32.68C113.532 33.16 113.399 33.592 113.132 33.976C112.866 34.36 112.498 34.6587 112.028 34.872C111.559 35.0853 111.015 35.192 110.396 35.192ZM115.48 35V22.888H116.968V31.192L116.36 31.048L120.936 26.376H122.84L119.528 29.848L123.064 35H121.304L118.072 30.328L119 30.28L116.488 32.904L116.968 31.816V35H115.48ZM127.168 35V22.888H128.656V28.056L128.384 27.912C128.597 27.368 128.938 26.9467 129.408 26.648C129.888 26.3387 130.448 26.184 131.088 26.184C131.706 26.184 132.256 26.3227 132.736 26.6C133.226 26.8773 133.61 27.2613 133.888 27.752C134.176 28.2427 134.32 28.7973 134.32 29.416V35H132.816V29.896C132.816 29.416 132.725 29.0107 132.544 28.68C132.373 28.3493 132.133 28.0933 131.824 27.912C131.514 27.72 131.157 27.624 130.752 27.624C130.357 27.624 130 27.72 129.68 27.912C129.36 28.0933 129.109 28.3547 128.928 28.696C128.746 29.0267 128.656 29.4267 128.656 29.896V35H127.168ZM140.417 35.192C139.585 35.192 138.844 34.9947 138.193 34.6C137.542 34.2053 137.03 33.6667 136.657 32.984C136.284 32.2907 136.097 31.5173 136.097 30.664C136.097 29.8 136.278 29.032 136.641 28.36C137.014 27.688 137.516 27.16 138.145 26.776C138.785 26.3813 139.5 26.184 140.289 26.184C140.929 26.184 141.494 26.3013 141.985 26.536C142.486 26.76 142.908 27.0693 143.249 27.464C143.601 27.848 143.868 28.2907 144.049 28.792C144.241 29.2827 144.337 29.7947 144.337 30.328C144.337 30.4453 144.326 30.5787 144.305 30.728C144.294 30.8667 144.278 31 144.257 31.128H137.185V29.848H143.393L142.689 30.424C142.785 29.8693 142.732 29.3733 142.529 28.936C142.326 28.4987 142.028 28.152 141.633 27.896C141.238 27.64 140.79 27.512 140.289 27.512C139.788 27.512 139.329 27.64 138.913 27.896C138.497 28.152 138.172 28.52 137.937 29C137.713 29.4693 137.622 30.0293 137.665 30.68C137.622 31.3093 137.718 31.864 137.953 32.344C138.198 32.8133 138.54 33.1813 138.977 33.448C139.425 33.704 139.91 33.832 140.433 33.832C141.009 33.832 141.494 33.6987 141.889 33.432C142.284 33.1653 142.604 32.824 142.849 32.408L144.097 33.048C143.926 33.4427 143.66 33.8053 143.297 34.136C142.945 34.456 142.524 34.712 142.033 34.904C141.553 35.096 141.014 35.192 140.417 35.192ZM146.277 35V26.376H147.733V27.96L147.573 27.736C147.776 27.2453 148.085 26.8827 148.501 26.648C148.917 26.4027 149.424 26.28 150.021 26.28H150.549V27.688H149.797C149.189 27.688 148.698 27.88 148.325 28.264C147.952 28.6373 147.765 29.1707 147.765 29.864V35H146.277ZM155.839 35.192C155.007 35.192 154.265 34.9947 153.615 34.6C152.964 34.2053 152.452 33.6667 152.079 32.984C151.705 32.2907 151.519 31.5173 151.519 30.664C151.519 29.8 151.7 29.032 152.063 28.36C152.436 27.688 152.937 27.16 153.567 26.776C154.207 26.3813 154.921 26.184 155.711 26.184C156.351 26.184 156.916 26.3013 157.407 26.536C157.908 26.76 158.329 27.0693 158.671 27.464C159.023 27.848 159.289 28.2907 159.471 28.792C159.663 29.2827 159.759 29.7947 159.759 30.328C159.759 30.4453 159.748 30.5787 159.727 30.728C159.716 30.8667 159.7 31 159.679 31.128H152.607V29.848H158.815L158.111 30.424C158.207 29.8693 158.153 29.3733 157.951 28.936C157.748 28.4987 157.449 28.152 157.055 27.896C156.66 27.64 156.212 27.512 155.711 27.512C155.209 27.512 154.751 27.64 154.335 27.896C153.919 28.152 153.593 28.52 153.359 29C153.135 29.4693 153.044 30.0293 153.087 30.68C153.044 31.3093 153.14 31.864 153.375 32.344C153.62 32.8133 153.961 33.1813 154.399 33.448C154.847 33.704 155.332 33.832 155.855 33.832C156.431 33.832 156.916 33.6987 157.311 33.432C157.705 33.1653 158.025 32.824 158.271 32.408L159.519 33.048C159.348 33.4427 159.081 33.8053 158.719 34.136C158.367 34.456 157.945 34.712 157.455 34.904C156.975 35.096 156.436 35.192 155.839 35.192ZM162.307 35V33.08H163.859V35H162.307ZM167.385 35V33.08H168.937V35H167.385ZM172.463 35V33.08H174.015V35H172.463Z" fill="#121212" fill-opacity="0.5"/>
</svg>
